<?xml version="1.0" standalone="no"?>
<!DOCTYPE svg PUBLIC "-//W3C//DTD SVG 20010904//EN"
 "http://www.w3.org/TR/2001/REC-SVG-20010904/DTD/svg10.dtd">
<svg version="1.0" xmlns="http://www.w3.org/2000/svg"
 width="70.000000pt" height="70.000000pt" viewBox="0 0 70.000000 70.000000"
 preserveAspectRatio="xMidYMid meet">
<metadata>
Created by potrace 1.11, written by Peter Selinger 2001-2013
</metadata>
<g transform="translate(0.000000,70.000000) scale(0.100000,-0.100000)"
fill="#000000" stroke="none">
<path d="M253 686 c-103 -34 -176 -98 -222 -196 -22 -46 -26 -69 -26 -140 0
-76 4 -93 33 -152 38 -77 92 -130 171 -167 47 -22 70 -26 141 -26 76 0 93 4
152 33 77 38 128 91 167 172 37 79 37 201 0 280 -60 126 -168 200 -302 206
-43 3 -89 -2 -114 -10z m234 -52 c29 -14 72 -47 97 -75 140 -156 90 -402 -102
-496 -115 -56 -263 -30 -356 63 -122 122 -122 327 0 447 97 97 240 121 361 61z"/>
<path d="M275 627 c-135 -45 -209 -144 -209 -277 0 -309 421 -395 546 -112 42
94 20 223 -51 305 -65 73 -199 112 -286 84z m175 -44 c3 -4 4 -38 1 -76 l-6
-67 -103 66 c-60 39 -100 70 -94 76 24 24 182 25 202 1z m-148 -110 c-18 -15
-187 -103 -196 -103 -12 0 -5 46 13 85 10 22 32 55 50 72 l32 32 58 -37 c52
-32 57 -39 43 -49z m273 -9 c8 -18 18 -46 21 -62 6 -29 3 -32 -55 -61 -33 -17
-62 -31 -63 -31 -3 0 8 236 11 249 2 12 72 -66 86 -95z m-147 -53 c19 -14 21
-22 15 -69 -6 -51 -8 -54 -53 -77 l-46 -24 -47 31 c-44 28 -47 33 -47 72 0 50
12 67 65 94 43 22 52 19 113 -27z m-215 -215 l-8 -59 -34 34 c-37 37 -70 101
-71 136 0 18 13 29 58 52 l57 29 3 -67 c1 -36 -1 -93 -5 -125z m382 97 c-8
-45 -33 -88 -72 -125 l-29 -27 -58 38 -58 39 43 25 c63 36 162 86 173 87 4 0
5 -17 1 -37z m-215 -114 c45 -29 77 -56 73 -60 -26 -26 -179 -27 -206 0 -4 4
-5 38 -1 75 7 66 7 66 29 52 13 -8 60 -38 105 -67z"/>
</g>
</svg>
