<?xml version="1.0" encoding="UTF-8" standalone="no"?>
<!-- Created with Inkscape (http://www.inkscape.org/) -->

<svg
   xmlns:dc="http://purl.org/dc/elements/1.1/"
   xmlns:cc="http://creativecommons.org/ns#"
   xmlns:rdf="http://www.w3.org/1999/02/22-rdf-syntax-ns#"
   xmlns:svg="http://www.w3.org/2000/svg"
   xmlns="http://www.w3.org/2000/svg"
   xmlns:sodipodi="http://sodipodi.sourceforge.net/DTD/sodipodi-0.dtd"
   xmlns:inkscape="http://www.inkscape.org/namespaces/inkscape"
   version="1.1"
   id="svg2"
   xml:space="preserve"
   width="154.492"
   height="137.43201"
   viewBox="0 0 154.492 137.43201"
   sodipodi:docname="1.svg"
   inkscape:version="0.92.4 (5da689c313, 2019-01-14)"><metadata
     id="metadata8"><rdf:RDF><cc:Work
         rdf:about=""><dc:format>image/svg+xml</dc:format><dc:type
           rdf:resource="http://purl.org/dc/dcmitype/StillImage" /><dc:title></dc:title></cc:Work></rdf:RDF></metadata><defs
     id="defs6"><clipPath
       clipPathUnits="userSpaceOnUse"
       id="clipPath18"><path
         d="M 0,103.074 H 115.869 V 0 H 0 Z"
         id="path16"
         inkscape:connector-curvature="0" /></clipPath></defs><sodipodi:namedview
     pagecolor="#ffffff"
     bordercolor="#666666"
     borderopacity="1"
     objecttolerance="10"
     gridtolerance="10"
     guidetolerance="10"
     inkscape:pageopacity="0"
     inkscape:pageshadow="2"
     inkscape:window-width="640"
     inkscape:window-height="491"
     id="namedview4"
     showgrid="false"
     inkscape:zoom="1.7172128"
     inkscape:cx="77.246002"
     inkscape:cy="68.716003"
     inkscape:window-x="0"
     inkscape:window-y="107"
     inkscape:window-maximized="0"
     inkscape:current-layer="g10" /><g
     id="g10"
     inkscape:groupmode="layer"
     inkscape:label="Inteligentne obiekty wektorowe10"
     transform="matrix(1.3333333,0,0,-1.3333333,0,137.432)"><g
       id="g12"><g
         id="g14"
         clip-path="url(#clipPath18)"><g
           id="g20"
           transform="translate(110.5613,21.6443)"><path
             d="M 0,0 C 0,-0.082 -0.078,-0.159 -0.16,-0.159 H -7.106 L -7.976,3.5 h 2.62 V 8.809 H -99.605 V 3.5 h 2.619 l -0.869,-3.659 h -7.239 c -0.082,0 -0.159,0.077 -0.159,0.159 v 12.309 c 0,0.081 0.077,0.159 0.159,0.159 H -0.16 C -0.078,12.468 0,12.39 0,12.309 Z m -25.712,3.5 1.219,-7.264 H -80.76 L -79.541,3.5 Z M -96.246,-16.336 -91.53,3.5 h 6.607 l -1.482,-8.825 c -0.158,-0.943 0.101,-1.897 0.71,-2.615 0.609,-0.719 1.506,-1.132 2.462,-1.132 h 61.213 c 0.957,0 1.854,0.413 2.463,1.133 0.609,0.719 0.867,1.673 0.708,2.615 L -20.33,3.5 h 6.898 l 4.717,-19.836 z m 5.815,92.458 h 30.701 c -4.996,-2.622 -8.416,-7.852 -8.416,-13.875 0,-3.932 1.466,-7.52 3.868,-10.274 V 41.808 h -30.798 v 29.669 c 0,2.561 2.084,4.645 4.645,4.645 m 80.337,-4.645 V 41.808 h -30.589 v 10.165 c 2.401,2.754 3.868,6.342 3.868,10.274 0,6.023 -3.42,11.253 -8.416,13.875 h 30.492 c 2.561,0 4.645,-2.084 4.645,-4.645 M -35.292,17.776 -40.021,36.5 H -9.268 L -2.125,17.776 Z M -49.827,36.5 h 4.331 l 4.729,-18.724 h -9.06 z m -9.143,11.506 c 1.205,-0.552 2.49,-0.951 3.835,-1.182 v -5.016 h -3.835 z m 6.49,3.883 c -5.712,0 -10.358,4.647 -10.358,10.358 0,5.711 4.646,10.358 10.358,10.358 5.71,0 10.357,-4.647 10.357,-10.358 0,-5.711 -4.647,-10.358 -10.357,-10.358 m 2.653,-10.081 v 5.016 c 1.346,0.231 2.63,0.63 3.836,1.182 v -6.198 z m -9.75,-5.308 h 4.442 V 17.776 h -9.357 z m -5.488,0 -4.915,-18.724 h -33.064 L -95.901,36.5 Z M 4.614,14.967 4.625,14.972 -4.786,39.643 v 31.834 c 0,5.488 -4.464,9.953 -9.953,9.953 h -75.692 c -5.488,0 -9.953,-4.465 -9.953,-9.953 V 39.643 l -9.294,-24.365 c -0.557,-0.856 -0.884,-1.875 -0.884,-2.969 V 0 c 0,-3.014 2.454,-5.467 5.468,-5.467 h 5.976 l -2.455,-10.327 c -0.35,-1.472 -0.042,-2.96 0.846,-4.083 0.887,-1.123 2.264,-1.768 3.776,-1.768 H -8.01 c 1.512,0 2.889,0.645 3.776,1.768 0.887,1.123 1.195,2.611 0.846,4.083 l -2.456,10.327 h 5.684 c 3.015,0 5.468,2.453 5.468,5.467 v 12.309 c 0,0.964 -0.254,1.871 -0.694,2.658"
             style="fill:#000000;fill-opacity:1;fill-rule:nonzero;stroke:none"
             id="path22"
             inkscape:connector-curvature="0" /></g><g
           id="g24"
           transform="translate(89.0867,90.7322)"><path
             d="m 0,0 c 1.478,0 2.679,-1.202 2.679,-2.68 0,-1.477 -1.201,-2.679 -2.679,-2.679 -1.478,0 -2.68,1.202 -2.68,2.679 C -2.68,-1.202 -1.478,0 0,0 m 0,-10.667 c 4.404,0 7.988,3.583 7.988,7.987 0,4.405 -3.584,7.988 -7.988,7.988 -4.405,0 -7.988,-3.583 -7.988,-7.988 0,-4.404 3.583,-7.987 7.988,-7.987"
             style="fill:#000000;fill-opacity:1;fill-rule:nonzero;stroke:none"
             id="path26"
             inkscape:connector-curvature="0" /></g><path
           d="m 88.5,64.708 h 5.92 v 5.308 H 88.5 Z"
           style="fill:#000000;fill-opacity:1;fill-rule:nonzero;stroke:none"
           id="path28"
           inkscape:connector-curvature="0" /><path
           d="m 26.664,71.774 h -5.919 v -5.308 h 5.919 z"
           style="fill:#000000;fill-opacity:1;fill-rule:nonzero;stroke:none"
           id="path30"
           inkscape:connector-curvature="0" /></g></g></g></svg>