<?xml version="1.0" encoding="UTF-8" standalone="no"?>
<!-- Created with Inkscape (http://www.inkscape.org/) -->

<svg
   xmlns:dc="http://purl.org/dc/elements/1.1/"
   xmlns:cc="http://creativecommons.org/ns#"
   xmlns:rdf="http://www.w3.org/1999/02/22-rdf-syntax-ns#"
   xmlns:svg="http://www.w3.org/2000/svg"
   xmlns="http://www.w3.org/2000/svg"
   xmlns:sodipodi="http://sodipodi.sourceforge.net/DTD/sodipodi-0.dtd"
   xmlns:inkscape="http://www.inkscape.org/namespaces/inkscape"
   version="1.1"
   id="svg2"
   xml:space="preserve"
   width="198.216"
   height="124.21347"
   viewBox="0 0 198.216 124.21347"
   sodipodi:docname="10.svg"
   inkscape:version="0.92.4 (5da689c313, 2019-01-14)"><metadata
     id="metadata8"><rdf:RDF><cc:Work
         rdf:about=""><dc:format>image/svg+xml</dc:format><dc:type
           rdf:resource="http://purl.org/dc/dcmitype/StillImage" /><dc:title></dc:title></cc:Work></rdf:RDF></metadata><defs
     id="defs6"><clipPath
       clipPathUnits="userSpaceOnUse"
       id="clipPath18"><path
         d="M 0,93.16 H 148.662 V 0 H 0 Z"
         id="path16" class="icon-fill"
         inkscape:connector-curvature="0" /></clipPath></defs><sodipodi:namedview
     pagecolor="#ffffff"
     bordercolor="#666666"
     borderopacity="1"
     objecttolerance="10"
     gridtolerance="10"
     guidetolerance="10"
     inkscape:pageopacity="0"
     inkscape:pageshadow="2"
     inkscape:window-width="640"
     inkscape:window-height="480"
     id="namedview4"
     showgrid="false"
     inkscape:zoom="1.899955"
     inkscape:cx="99.108002"
     inkscape:cy="62.106735"
     inkscape:window-x="0"
     inkscape:window-y="0"
     inkscape:window-maximized="0"
     inkscape:current-layer="g10" /><g
     id="g10"
     inkscape:groupmode="layer"
     inkscape:label="Inteligentne obiekty wektorowe19"
     transform="matrix(1.3333333,0,0,-1.3333333,0,124.21347)"><g
       id="g12"><g
         id="g14"
         clip-path="url(#clipPath18)"><path
           d="m 143.074,29.467 h -25.86 v 58.105 h 25.86 z m -38.833,5.786 V 74.945 H 98.653 V 35.746 l -39.543,4.07 v 37.412 l 43.763,4.559 h 8.753 V 35.253 Z M 43.556,72.152 h 9.967 V 44.888 h -9.967 z m -14.37,-60.9 C 29.36,8.997 31.269,7.232 33.53,7.232 H 87.508 V 5.587 H 25.789 l -3.571,29.529 h 5.111 z M 16.435,76.337 H 37.968 V 40.702 H 16.435 Z M 5.588,72.152 h 5.261 V 43.554 H 5.588 Z m 138.883,21.009 h -28.654 c -2.311,0 -4.191,-1.88 -4.191,-4.192 v -1.595 h -8.899 L 53.522,82.263 v -4.524 h -9.971 c -0.031,2.312 -1.916,4.186 -4.236,4.186 H 15.089 c -2.321,0 -4.205,-1.874 -4.236,-4.186 H 4.24 C 1.902,77.739 0,75.836 0,73.498 V 42.206 c 0,-2.338 1.902,-4.24 4.24,-4.24 h 6.861 c 0.579,-1.654 2.138,-2.85 3.988,-2.85 H 16.59 L 20.368,3.88 20.394,3.705 C 20.786,1.593 22.703,0 24.852,0 h 64.003 c 2.338,0 4.241,1.902 4.241,4.241 v 4.338 c 0,2.338 -1.903,4.241 -4.241,4.241 H 34.669 l -1.735,22.296 h 6.381 c 2.32,0 4.205,1.873 4.236,4.185 h 9.971 v -4.527 l 49.502,-5.093 8.602,-0.012 v -1.598 c 0,-2.312 1.88,-4.192 4.191,-4.192 h 28.654 c 2.311,0 4.19,1.88 4.19,4.192 v 60.898 c 0,2.312 -1.879,4.192 -4.19,4.192"
           style="fill:#6764cb;fill-opacity:1;fill-rule:nonzero;stroke:none"
           id="path20"
           inkscape:connector-curvature="0" /></g></g></g></svg>
