<?xml version="1.0" encoding="UTF-8" standalone="no"?>
<!-- Created with Inkscape (http://www.inkscape.org/) -->

<svg
   xmlns:dc="http://purl.org/dc/elements/1.1/"
   xmlns:cc="http://creativecommons.org/ns#"
   xmlns:rdf="http://www.w3.org/1999/02/22-rdf-syntax-ns#"
   xmlns:svg="http://www.w3.org/2000/svg"
   xmlns="http://www.w3.org/2000/svg"
   xmlns:sodipodi="http://sodipodi.sourceforge.net/DTD/sodipodi-0.dtd"
   xmlns:inkscape="http://www.inkscape.org/namespaces/inkscape"
   version="1.1"
   id="svg2"
   xml:space="preserve"
   width="160.12399"
   height="128.17574"
   viewBox="0 0 160.12399 128.17574"
   sodipodi:docname="2.svg"
   inkscape:version="0.92.4 (5da689c313, 2019-01-14)"><metadata
     id="metadata8"><rdf:RDF><cc:Work
         rdf:about=""><dc:format>image/svg+xml</dc:format><dc:type
           rdf:resource="http://purl.org/dc/dcmitype/StillImage" /><dc:title></dc:title></cc:Work></rdf:RDF></metadata><defs
     id="defs6"><clipPath
       clipPathUnits="userSpaceOnUse"
       id="clipPath18"><path
         d="M 0,96.132 H 120.093 V 0 H 0 Z"
         id="path16"
         inkscape:connector-curvature="0" /></clipPath></defs><sodipodi:namedview
     pagecolor="#ffffff"
     bordercolor="#666666"
     borderopacity="1"
     objecttolerance="10"
     gridtolerance="10"
     guidetolerance="10"
     inkscape:pageopacity="0"
     inkscape:pageshadow="2"
     inkscape:window-width="640"
     inkscape:window-height="502"
     id="namedview4"
     showgrid="false"
     inkscape:zoom="1.8412221"
     inkscape:cx="80.061996"
     inkscape:cy="107.53727"
     inkscape:window-x="0"
     inkscape:window-y="107"
     inkscape:window-maximized="0"
     inkscape:current-layer="g10" /><g
     id="g10"
     inkscape:groupmode="layer"
     inkscape:label="Inteligentne obiekty wektorowe11"
     transform="matrix(1.3333333,0,0,-1.3333333,0,128.17573)"><g
       id="g12"><g
         id="g14"
         clip-path="url(#clipPath18)"><g
           id="g20"
           transform="translate(111.7989,5.9716)"><path
             d="m 0,0 h -42.015 c 3.477,1.203 6.709,2.933 9.594,5.106 H 2.322 V 2.322 C 2.322,1.042 1.28,0 0,0 m -105.827,2.322 v 2.784 h 31.425 C -71.518,2.933 -68.286,1.203 -64.809,0 h -38.696 c -1.281,0 -2.322,1.042 -2.322,2.322 m 2.322,69.494 h 34.843 l 6.6,12.372 h 18.628 l 6.599,-12.372 H 0 c 1.28,0 2.322,-1.042 2.322,-2.322 v -7.863 h -35.666 c -5.684,4.001 -12.604,6.361 -20.068,6.361 -7.464,0 -14.383,-2.36 -20.067,-6.361 h -32.348 v 7.199 c 0,1.28 1.041,2.986 2.322,2.986 m 85.048,-38.779 c 0,8.938 -3.376,17.099 -8.915,23.286 H 2.322 V 10.414 h -29.118 c 5.194,6.102 8.339,14 8.339,22.623 m -61.57,-22.623 h -25.8 v 45.909 h 26.375 c -5.539,-6.187 -8.915,-14.348 -8.915,-23.286 0,-8.623 3.145,-16.521 8.34,-22.623 m -3.032,22.623 c 0,16.347 13.3,29.647 29.647,29.647 16.348,0 29.647,-13.3 29.647,-29.647 0,-16.348 -13.299,-29.647 -29.647,-29.647 -16.347,0 -29.647,13.299 -29.647,29.647 M 0,77.788 h -11.879 v 4.41 h -11.722 v -4.41 h -9.65 l -6.6,12.372 h -25.794 l -6.6,-12.372 h -6.427 v 4.41 h -11.722 v -4.41 h -13.111 c -4.573,0 -8.294,-4.385 -8.294,-8.958 V 2.322 c 0,-4.573 3.721,-8.294 8.294,-8.294 L 0,-5.972 c 4.573,0 8.294,3.721 8.294,8.294 v 67.172 c 0,4.573 -3.721,8.294 -8.294,8.294"
             style="fill:#6764cb;fill-opacity:1;fill-rule:nonzero;stroke:none"
             id="path22"
             inkscape:connector-curvature="0" /></g><g
           id="g24"
           transform="translate(38.419,39.0082)"><path
             d="m 0,0 c 0,11.011 8.958,19.969 19.968,19.969 11.011,0 19.969,-8.958 19.969,-19.969 0,-11.011 -8.958,-19.968 -19.969,-19.968 C 8.958,-19.968 0,-11.011 0,0 m 45.909,0 c 0,14.304 -11.637,25.94 -25.941,25.94 -14.303,0 -25.94,-11.636 -25.94,-25.94 0,-14.303 11.637,-25.94 25.94,-25.94 14.304,0 25.941,11.637 25.941,25.94"
             style="fill:#6764cb;fill-opacity:1;fill-rule:nonzero;stroke:none"
             id="path26"
             inkscape:connector-curvature="0" /></g><g
           id="g28"
           transform="translate(58.3873,55.6571)"><path
             d="m 0,0 c -9.18,0 -16.648,-7.469 -16.648,-16.649 h 5.971 c 0,5.888 4.79,10.677 10.677,10.677 z"
             style="fill:#6764cb;fill-opacity:1;fill-rule:nonzero;stroke:none"
             id="path30"
             inkscape:connector-curvature="0" /></g><path
           d="M 64.912,86.4 H 53.19 v -5.971 h 11.722 z"
           style="fill:#6764cb;fill-opacity:1;fill-rule:nonzero;stroke:none"
           id="path32"
           inkscape:connector-curvature="0" /><path
           d="M 109.211,74.938 H 94.946 V 69.63 h 14.265 z"
           style="fill:#6764cb;fill-opacity:1;fill-rule:nonzero;stroke:none"
           id="path34"
           inkscape:connector-curvature="0" /></g></g></g></svg>
