<?xml version="1.0" encoding="UTF-8" standalone="no"?>
<!-- Created with Inkscape (http://www.inkscape.org/) -->

<svg
   xmlns:dc="http://purl.org/dc/elements/1.1/"
   xmlns:cc="http://creativecommons.org/ns#"
   xmlns:rdf="http://www.w3.org/1999/02/22-rdf-syntax-ns#"
   xmlns:svg="http://www.w3.org/2000/svg"
   xmlns="http://www.w3.org/2000/svg"
   xmlns:sodipodi="http://sodipodi.sourceforge.net/DTD/sodipodi-0.dtd"
   xmlns:inkscape="http://www.inkscape.org/namespaces/inkscape"
   version="1.1"
   id="svg2"
   xml:space="preserve"
   width="171.55333"
   height="160.532"
   viewBox="0 0 171.55333 160.532"
   sodipodi:docname="4.svg"
   inkscape:version="0.92.4 (5da689c313, 2019-01-14)"><metadata
     id="metadata8"><rdf:RDF><cc:Work
         rdf:about=""><dc:format>image/svg+xml</dc:format><dc:type
           rdf:resource="http://purl.org/dc/dcmitype/StillImage" /><dc:title></dc:title></cc:Work></rdf:RDF></metadata><defs
     id="defs6"><clipPath
       clipPathUnits="userSpaceOnUse"
       id="clipPath18"><path
         d="M 0,120.399 H 128.665 V 0 H 0 Z"
         id="path16"
         inkscape:connector-curvature="0" /></clipPath></defs><sodipodi:namedview
     pagecolor="#ffffff"
     bordercolor="#666666"
     borderopacity="1"
     objecttolerance="10"
     gridtolerance="10"
     guidetolerance="10"
     inkscape:pageopacity="0"
     inkscape:pageshadow="2"
     inkscape:window-width="640"
     inkscape:window-height="480"
     id="namedview4"
     showgrid="false"
     inkscape:zoom="1.4701119"
     inkscape:cx="85.776665"
     inkscape:cy="80.265999"
     inkscape:window-x="0"
     inkscape:window-y="0"
     inkscape:window-maximized="0"
     inkscape:current-layer="g10" /><g
     id="g10"
     inkscape:groupmode="layer"
     inkscape:label="Inteligentne obiekty wektorowe12"
     transform="matrix(1.3333333,0,0,-1.3333333,0,160.532)"><g
       id="g12"><g
         id="g14"
         clip-path="url(#clipPath18)"><g
           id="g20"
           transform="translate(123.3572,67.9969)"><path
             d="m 0,0 c 0,-2.195 -1.786,-3.981 -3.981,-3.981 h -14.597 c -5.122,0 -9.289,-4.167 -9.289,-9.289 v -19.574 h -64.029 v -5.308 h 28.251 v -3.747 h -31.237 v 61.473 l 94.882,0 z m -118.049,-47.207 h 54.404 v -6.657 h -54.404 z m 34.889,-15.482 h -15.373 v 3.518 h 15.373 z m 19.515,94.301 h -54.404 v 6.657 h 54.404 z m -34.888,15.482 h 15.373 v -3.517 h -15.373 z m -19.516,-20.79 h 17.858 v -68.203 h -17.858 z m 23.167,0 h 31.237 v -1.423 h -31.237 z m 36.545,-1.423 v 14.715 c 0,2.196 -1.785,3.981 -3.98,3.981 h -15.536 v 4.844 c 0,2.196 -1.785,3.981 -3.98,3.981 H -99.86 c -2.196,0 -3.982,-1.785 -3.982,-3.981 v -4.844 h -15.534 c -2.195,0 -3.981,-1.785 -3.981,-3.981 V -55.19 c 0,-2.196 1.786,-3.981 3.981,-3.981 h 15.534 v -4.845 c 0,-2.195 1.786,-3.981 3.982,-3.981 h 18.027 c 2.195,0 3.98,1.786 3.98,3.981 v 4.845 h 15.536 c 2.195,0 3.98,1.785 3.98,3.981 v 17.038 h 35.777 v 24.882 c 0,2.195 1.787,3.981 3.982,3.981 h 14.597 c 5.122,0 9.289,4.167 9.289,9.289 v 24.881 z"
             style="fill:#000000;fill-opacity:1;fill-rule:nonzero;stroke:none"
             id="path22"
             inkscape:connector-curvature="0" /></g><path
           d="M 36.658,46.875 H 31.35 v -9.068 h 5.308 z"
           style="fill:#000000;fill-opacity:1;fill-rule:nonzero;stroke:none"
           id="path24"
           inkscape:connector-curvature="0" /><path
           d="m 46.021,46.875 h -5.308 v -9.068 h 5.308 z"
           style="fill:#000000;fill-opacity:1;fill-rule:nonzero;stroke:none"
           id="path26"
           inkscape:connector-curvature="0" /><path
           d="m 55.385,46.875 h -5.309 v -9.068 h 5.309 z"
           style="fill:#000000;fill-opacity:1;fill-rule:nonzero;stroke:none"
           id="path28"
           inkscape:connector-curvature="0" /><path
           d="m 64.747,46.875 h -5.309 v -9.068 h 5.309 z"
           style="fill:#000000;fill-opacity:1;fill-rule:nonzero;stroke:none"
           id="path30"
           inkscape:connector-curvature="0" /><path
           d="M 74.11,46.875 H 68.801 V 37.807 H 74.11 Z"
           style="fill:#000000;fill-opacity:1;fill-rule:nonzero;stroke:none"
           id="path32"
           inkscape:connector-curvature="0" /><path
           d="m 83.472,46.875 h -5.308 v -9.068 h 5.308 z"
           style="fill:#000000;fill-opacity:1;fill-rule:nonzero;stroke:none"
           id="path34"
           inkscape:connector-curvature="0" /><path
           d="m 92.836,46.875 h -5.309 v -9.068 h 5.309 z"
           style="fill:#000000;fill-opacity:1;fill-rule:nonzero;stroke:none"
           id="path36"
           inkscape:connector-curvature="0" /><path
           d="M 36.658,84.253 H 31.35 v -9.068 h 5.308 z"
           style="fill:#000000;fill-opacity:1;fill-rule:nonzero;stroke:none"
           id="path38"
           inkscape:connector-curvature="0" /><path
           d="m 46.021,84.253 h -5.308 v -9.068 h 5.308 z"
           style="fill:#000000;fill-opacity:1;fill-rule:nonzero;stroke:none"
           id="path40"
           inkscape:connector-curvature="0" /><path
           d="m 55.385,84.253 h -5.309 v -9.068 h 5.309 z"
           style="fill:#000000;fill-opacity:1;fill-rule:nonzero;stroke:none"
           id="path42"
           inkscape:connector-curvature="0" /><path
           d="m 64.747,84.253 h -5.309 v -9.068 h 5.309 z"
           style="fill:#000000;fill-opacity:1;fill-rule:nonzero;stroke:none"
           id="path44"
           inkscape:connector-curvature="0" /><path
           d="M 74.11,84.253 H 68.801 V 75.185 H 74.11 Z"
           style="fill:#000000;fill-opacity:1;fill-rule:nonzero;stroke:none"
           id="path46"
           inkscape:connector-curvature="0" /><path
           d="m 83.472,84.253 h -5.308 v -9.068 h 5.308 z"
           style="fill:#000000;fill-opacity:1;fill-rule:nonzero;stroke:none"
           id="path48"
           inkscape:connector-curvature="0" /><path
           d="m 92.836,84.253 h -5.309 v -9.068 h 5.309 z"
           style="fill:#000000;fill-opacity:1;fill-rule:nonzero;stroke:none"
           id="path50"
           inkscape:connector-curvature="0" /><path
           d="M 102.199,84.253 H 96.89 v -9.068 h 5.309 z"
           style="fill:#000000;fill-opacity:1;fill-rule:nonzero;stroke:none"
           id="path52"
           inkscape:connector-curvature="0" /><path
           d="m 111.561,84.253 h -5.309 v -9.068 h 5.309 z"
           style="fill:#000000;fill-opacity:1;fill-rule:nonzero;stroke:none"
           id="path54"
           inkscape:connector-curvature="0" /><path
           d="m 120.924,84.253 h -5.308 v -9.068 h 5.308 z"
           style="fill:#000000;fill-opacity:1;fill-rule:nonzero;stroke:none"
           id="path56"
           inkscape:connector-curvature="0" /></g></g></g></svg>