<!-- Created with Inkscape (http://www.inkscape.org/) -->

<svg
   xmlns:dc="http://purl.org/dc/elements/1.1/"
   xmlns:cc="http://creativecommons.org/ns#"
   xmlns:rdf="http://www.w3.org/1999/02/22-rdf-syntax-ns#"
   xmlns:svg="http://www.w3.org/2000/svg"
   xmlns="http://www.w3.org/2000/svg"
   xmlns:sodipodi="http://sodipodi.sourceforge.net/DTD/sodipodi-0.dtd"
   xmlns:inkscape="http://www.inkscape.org/namespaces/inkscape"
   version="1.1"
   id="svg2"
   xml:space="preserve"
   width="160.12399"
   height="128.17574"
   viewBox="0 0 160.12399 128.17574"
   sodipodi:docname="Inteligentne obiekty wektorowe13.svg"
   inkscape:version="0.92.4 (5da689c313, 2019-01-14)"><metadata
     id="metadata8"><rdf:RDF><cc:Work
         rdf:about=""><dc:format>image/svg+xml</dc:format><dc:type
           rdf:resource="http://purl.org/dc/dcmitype/StillImage" /><dc:title></dc:title></cc:Work></rdf:RDF></metadata><defs
     id="defs6"><clipPath
       clipPathUnits="userSpaceOnUse"
       id="clipPath30"><path
         d="M 0,96.132 H 120.093 V 0 H 0 Z"
         id="path28"
         inkscape:connector-curvature="0" /></clipPath></defs><sodipodi:namedview
     pagecolor="#ffffff"
     bordercolor="#666666"
     borderopacity="1"
     objecttolerance="10"
     gridtolerance="10"
     guidetolerance="10"
     inkscape:pageopacity="0"
     inkscape:pageshadow="2"
     inkscape:window-width="653"
     inkscape:window-height="558"
     id="namedview4"
     showgrid="false"
     inkscape:zoom="1.8412221"
     inkscape:cx="80.061996"
     inkscape:cy="64.087868"
     inkscape:window-x="375"
     inkscape:window-y="195"
     inkscape:window-maximized="0"
     inkscape:current-layer="g10" /><g
     id="g10"
     inkscape:groupmode="layer"
     inkscape:label="Inteligentne obiekty wektorowe13"
     transform="matrix(1.3333333,0,0,-1.3333333,0,128.17573)"><path
       d="m 85.422,49.676 h 5.587 v 5.587 h -5.587 z"
       style="fill:#6764cb;fill-opacity:1;fill-rule:nonzero;stroke:none"
       id="path12"
       inkscape:connector-curvature="0" /><path
       d="m 97.325,62.131 h -5.588 v -5.587 h 5.588 z"
       style="fill:#6764cb;fill-opacity:1;fill-rule:nonzero;stroke:none"
       id="path14"
       inkscape:connector-curvature="0" /><path
       d="m 97.325,47.639 h -5.588 v -5.587 h 5.588 z"
       style="fill:#6764cb;fill-opacity:1;fill-rule:nonzero;stroke:none"
       id="path16"
       inkscape:connector-curvature="0" /><path
       d="m 98.227,49.676 h 5.587 v 5.587 h -5.587 z"
       style="fill:#6764cb;fill-opacity:1;fill-rule:nonzero;stroke:none"
       id="path18"
       inkscape:connector-curvature="0" /><path
       d="m 84.956,10.331 h 5.587 v 5.587 h -5.587 z"
       style="fill:#6764cb;fill-opacity:1;fill-rule:nonzero;stroke:none"
       id="path20"
       inkscape:connector-curvature="0" /><path
       d="m 96.364,10.331 h 5.588 v 5.587 h -5.588 z"
       style="fill:#6764cb;fill-opacity:1;fill-rule:nonzero;stroke:none"
       id="path22"
       inkscape:connector-curvature="0" /><g
       id="g24"><g
         id="g26"
         clip-path="url(#clipPath30)"><g
           id="g32"
           transform="translate(114.1214,8.2938)"><path
             d="m 0,0 c 0,-1.28 -1.042,-2.322 -2.322,-2.322 h -103.505 c -1.28,0 -2.322,1.042 -2.322,2.322 v 66.508 c 0,1.28 1.042,2.986 2.322,2.986 h 34.843 l 6.599,12.372 h 18.629 l 6.599,-12.372 H -2.322 C -1.042,69.494 0,68.452 0,67.171 Z m -2.322,75.465 h -11.879 v 4.411 h -11.722 v -4.411 h -9.651 l -6.599,12.373 h -25.795 l -6.599,-12.373 h -6.428 v 4.411 h -11.722 v -4.411 h -13.11 c -4.573,0 -8.294,-4.384 -8.294,-8.957 V 0 c 0,-4.573 3.721,-8.294 8.294,-8.294 H -2.322 c 4.573,0 8.294,3.721 8.294,8.294 v 67.171 c 0,4.574 -3.721,8.294 -8.294,8.294"
             style="fill:#6764cb;fill-opacity:1;fill-rule:nonzero;stroke:none"
             id="path34"
             inkscape:connector-curvature="0" /></g><path
           d="M 64.912,86.4 H 53.189 v -5.971 h 11.723 z"
           style="fill:#6764cb;fill-opacity:1;fill-rule:nonzero;stroke:none"
           id="path36"
           inkscape:connector-curvature="0" /><path
           d="M 75.41,19.035 H 15.346 V 59.528 H 75.41 Z m 2.048,46.08 h -64.16 c -1.952,0 -3.54,-1.588 -3.54,-3.539 V 16.987 c 0,-1.952 1.588,-3.54 3.54,-3.54 h 64.16 c 1.952,0 3.54,1.588 3.54,3.54 v 44.589 c 0,1.951 -1.588,3.539 -3.54,3.539"
           style="fill:#6764cb;fill-opacity:1;fill-rule:nonzero;stroke:none"
           id="path38"
           inkscape:connector-curvature="0" /><g
           id="g40"
           transform="translate(30.346,55.0995)"><path
             d="m 0,0 -3.946,3.956 -9.997,-9.973 3.946,-3.956 z"
             style="fill:#6764cb;fill-opacity:1;fill-rule:nonzero;stroke:none"
             id="path42"
             inkscape:connector-curvature="0" /></g><g
           id="g44"
           transform="translate(22.1136,32.8055)"><path
             d="M 0,0 20.574,20.08 16.672,24.079 -3.902,3.999 Z"
             style="fill:#6764cb;fill-opacity:1;fill-rule:nonzero;stroke:none"
             id="path46"
             inkscape:connector-curvature="0" /></g></g></g></g></svg>
