<?xml version="1.0" encoding="UTF-8" standalone="no"?>
<!-- Created with Inkscape (http://www.inkscape.org/) -->

<svg
   xmlns:dc="http://purl.org/dc/elements/1.1/"
   xmlns:cc="http://creativecommons.org/ns#"
   xmlns:rdf="http://www.w3.org/1999/02/22-rdf-syntax-ns#"
   xmlns:svg="http://www.w3.org/2000/svg"
   xmlns="http://www.w3.org/2000/svg"
   xmlns:sodipodi="http://sodipodi.sourceforge.net/DTD/sodipodi-0.dtd"
   xmlns:inkscape="http://www.inkscape.org/namespaces/inkscape"
   version="1.1"
   id="svg2"
   xml:space="preserve"
   width="173.67732"
   height="153.34399"
   viewBox="0 0 173.67732 153.34399"
   sodipodi:docname="5.svg"
   inkscape:version="0.92.4 (5da689c313, 2019-01-14)"><metadata
     id="metadata8"><rdf:RDF><cc:Work
         rdf:about=""><dc:format>image/svg+xml</dc:format><dc:type
           rdf:resource="http://purl.org/dc/dcmitype/StillImage" /><dc:title></dc:title></cc:Work></rdf:RDF></metadata><defs
     id="defs6"><clipPath
       clipPathUnits="userSpaceOnUse"
       id="clipPath18"><path
         d="M 0,115.008 H 130.258 V 0 H 0 Z"
         id="path16"
         inkscape:connector-curvature="0" /></clipPath></defs><sodipodi:namedview
     pagecolor="#ffffff"
     bordercolor="#666666"
     borderopacity="1"
     objecttolerance="10"
     gridtolerance="10"
     guidetolerance="10"
     inkscape:pageopacity="0"
     inkscape:pageshadow="2"
     inkscape:window-width="640"
     inkscape:window-height="491"
     id="namedview4"
     showgrid="false"
     inkscape:zoom="1.5390234"
     inkscape:cx="86.838661"
     inkscape:cy="76.671997"
     inkscape:window-x="0"
     inkscape:window-y="107"
     inkscape:window-maximized="0"
     inkscape:current-layer="g10" /><g
     id="g10"
     inkscape:groupmode="layer"
     inkscape:label="Inteligentne obiekty wektorowe14"
     transform="matrix(1.3333333,0,0,-1.3333333,0,153.344)"><g
       id="g12"><g
         id="g14"
         clip-path="url(#clipPath18)"><g
           id="g20"
           transform="translate(124.67,34.214)"><path
             d="m 0,0 c -12.333,-12.203 -22.418,-14.874 -24.348,-15.291 -1.72,-0.37 -2.416,-1.681 -2.489,-2.691 -0.073,-1.01 0.427,-2.407 2.073,-3.021 5.17,-1.929 7.958,-5.124 8.905,-6.388 v -1.235 H -39.578 V 75.207 h 23.719 v -1.233 c -0.957,-1.278 -3.744,-4.465 -8.906,-6.391 -1.646,-0.615 -2.145,-2.012 -2.072,-3.02 0.073,-1.01 0.768,-2.32 2.488,-2.692 C -22.418,61.454 -12.335,58.785 0,46.58 Z m -62.626,-18.034 v 82.648 h 17.461 V 61.238 H -56.34 v -5.587 h 11.175 V 43.661 H -56.34 v -5.587 h 11.175 V 26.084 H -56.34 v -5.588 h 11.175 V 8.507 H -56.34 V 2.919 h 11.175 V -9.07 H -56.34 v -5.588 h 11.175 v -3.376 z m -44.467,72.288 h 38.879 V -7.674 h -38.879 z m -11.99,-4.249 h 6.402 v -53.43 h -6.402 z M 4.784,49.695 c -8.723,8.859 -16.553,13.356 -21.843,15.61 4.383,2.971 6.305,6.224 6.412,6.408 l 0.375,0.649 v 4.94 c 0,1.926 -1.566,3.492 -3.492,3.492 h -27.909 c -1.926,0 -3.492,-1.566 -3.492,-3.492 v -7.1 h -19.556 c -1.925,0 -3.492,-1.567 -3.492,-3.493 v -6.868 h -40.975 c -1.926,0 -3.493,-1.566 -3.493,-3.492 v -0.756 h -8.497 c -1.926,0 -3.492,-1.567 -3.492,-3.492 V -5.521 c 0,-1.925 1.566,-3.491 3.492,-3.491 h 8.497 v -0.757 c 0,-1.925 1.567,-3.492 3.493,-3.492 h 40.975 v -6.868 c 0,-1.926 1.567,-3.492 3.492,-3.492 h 19.556 v -7.101 c 0,-1.925 1.566,-3.492 3.492,-3.492 h 27.909 c 1.926,0 3.492,1.567 3.492,3.492 v 4.94 l -0.375,0.649 c -0.107,0.185 -2.029,3.437 -6.412,6.409 5.291,2.254 13.121,6.752 21.843,15.609 L 5.587,-2.3 v 51.18 z"
             style="fill:#000000;fill-opacity:1;fill-rule:nonzero;stroke:none"
             id="path22"
             inkscape:connector-curvature="0" /></g><path
           d="M 23.863,65.07 H 29.45 V 76.711 H 23.863 Z"
           style="fill:#000000;fill-opacity:1;fill-rule:nonzero;stroke:none"
           id="path24"
           inkscape:connector-curvature="0" /><path
           d="m 23.863,50.171 h 5.587 v 5.82 h -5.587 z"
           style="fill:#000000;fill-opacity:1;fill-rule:nonzero;stroke:none"
           id="path26"
           inkscape:connector-curvature="0" /><path
           d="m 23.863,38.297 h 5.587 v 5.82 h -5.587 z"
           style="fill:#000000;fill-opacity:1;fill-rule:nonzero;stroke:none"
           id="path28"
           inkscape:connector-curvature="0" /></g></g></g></svg>