<?xml version="1.0" encoding="UTF-8" standalone="no"?>
<!-- Created with Inkscape (http://www.inkscape.org/) -->

<svg
   xmlns:dc="http://purl.org/dc/elements/1.1/"
   xmlns:cc="http://creativecommons.org/ns#"
   xmlns:rdf="http://www.w3.org/1999/02/22-rdf-syntax-ns#"
   xmlns:svg="http://www.w3.org/2000/svg"
   xmlns="http://www.w3.org/2000/svg"
   xmlns:sodipodi="http://sodipodi.sourceforge.net/DTD/sodipodi-0.dtd"
   xmlns:inkscape="http://www.inkscape.org/namespaces/inkscape"
   version="1.1"
   id="svg2"
   xml:space="preserve"
   width="189.83867"
   height="135.496"
   viewBox="0 0 189.83867 135.496"
   sodipodi:docname="6.svg"
   inkscape:version="0.92.4 (5da689c313, 2019-01-14)"><metadata
     id="metadata8"><rdf:RDF><cc:Work
         rdf:about=""><dc:format>image/svg+xml</dc:format><dc:type
           rdf:resource="http://purl.org/dc/dcmitype/StillImage" /><dc:title></dc:title></cc:Work></rdf:RDF></metadata><defs
     id="defs6"><clipPath
       clipPathUnits="userSpaceOnUse"
       id="clipPath18"><path
         d="M 0,101.622 H 142.379 V 0 H 0 Z"
         id="path16"
         inkscape:connector-curvature="0" /></clipPath></defs><sodipodi:namedview
     pagecolor="#ffffff"
     bordercolor="#666666"
     borderopacity="1"
     objecttolerance="10"
     gridtolerance="10"
     guidetolerance="10"
     inkscape:pageopacity="0"
     inkscape:pageshadow="2"
     inkscape:window-width="640"
     inkscape:window-height="480"
     id="namedview4"
     showgrid="false"
     inkscape:zoom="1.7417488"
     inkscape:cx="94.919334"
     inkscape:cy="67.748001"
     inkscape:window-x="0"
     inkscape:window-y="0"
     inkscape:window-maximized="0"
     inkscape:current-layer="g10" /><g
     id="g10"
     inkscape:groupmode="layer"
     inkscape:label="Inteligentne obiekty wektorowe15"
     transform="matrix(1.3333333,0,0,-1.3333333,0,135.496)"><g
       id="g12"><g
         id="g14"
         clip-path="url(#clipPath18)"><g
           id="g20"
           transform="translate(122.0671,5.5876)"><path
             d="m 0,0 c -6.951,0 -14.725,19.34 -14.725,45.223 0,25.883 7.774,45.224 14.725,45.224 6.951,0 14.725,-19.341 14.725,-45.224 C 14.725,19.34 6.951,0 0,0 m -43.71,45.223 c 0,25.883 7.774,45.224 14.725,45.224 H -9.661 C -16.632,81.442 -20.312,62.933 -20.312,45.223 -20.312,27.514 -16.632,9.004 -9.661,0 H -28.985 C -35.936,0 -43.71,19.34 -43.71,45.223 M -60.323,6.984 h 17.661 C -41.476,4.29 -40.137,1.926 -38.646,0 h -14.226 c -2.512,0 -5.129,2.537 -7.451,6.984 m -29.891,38.239 c 0,25.883 7.774,45.224 14.725,45.224 h 12.957 C -69.504,81.442 -73.184,62.933 -73.184,45.223 -73.184,27.514 -69.504,9.004 -62.532,0 H -75.489 C -82.44,0 -90.214,19.34 -90.214,45.223 M -101.755,5.48 c -6.964,0 -14.724,16.322 -14.724,39.743 0,23.421 7.76,39.743 14.724,39.743 h 13.282 c -4.812,-9.912 -7.328,-25.1 -7.328,-39.743 0,-14.642 2.516,-29.831 7.328,-39.743 z m 54.993,64.809 h -18.15 c 0.72,3.087 1.556,5.892 2.475,8.361 H -44.5 c -0.87,-2.606 -1.626,-5.41 -2.262,-8.361 m -2.053,-13.951 h -18.287 c 0.264,2.926 0.627,5.721 1.073,8.363 h 18.231 c -0.431,-2.724 -0.772,-5.524 -1.017,-8.363 m -0.203,-19.537 c 0.184,-2.822 0.46,-5.622 0.826,-8.362 h -18.254 c -0.377,2.659 -0.67,5.453 -0.866,8.362 z m -18.579,8.422 c 0,1.881 0.046,3.722 0.125,5.528 h 18.298 c -0.079,-1.843 -0.123,-3.69 -0.123,-5.528 0,-0.943 0.013,-1.888 0.034,-2.834 h -18.299 c -0.021,0.937 -0.035,1.88 -0.035,2.834 m 2.101,-22.371 h 18.194 c 0.678,-3.639 1.527,-7.103 2.543,-10.28 h -17.96 c -1.065,2.996 -2.01,6.45 -2.777,10.28 m 26.85,67.595 c -1.345,-1.738 -2.562,-3.838 -3.66,-6.209 h -17.603 c 2.216,3.969 4.674,6.209 7.037,6.209 z M 0,96.034 h -75.489 c -3.668,0 -6.865,-2.029 -9.572,-5.48 h -16.694 c -11.579,0 -20.312,-19.488 -20.312,-45.331 0,-25.842 8.733,-45.33 20.312,-45.33 h 16.694 c 2.707,-3.452 5.904,-5.48 9.572,-5.48 H 0 c 13.193,0 20.312,26.178 20.312,50.81 0,24.632 -7.119,50.811 -20.312,50.811"
             style="fill:#6764cb;fill-opacity:1;fill-rule:nonzero;stroke:none"
             id="path22"
             inkscape:connector-curvature="0" /></g><g
           id="g24"
           transform="translate(122.0671,17.403)"><path
             d="m 0,0 c -0.627,0.308 -2.507,2.525 -4.17,9.458 -1.56,6.504 -2.419,15.01 -2.419,23.95 0,8.94 0.859,17.446 2.419,23.95 1.663,6.933 3.543,9.15 4.17,9.458 C 0.627,66.508 2.507,64.291 4.17,57.358 5.73,50.854 6.59,42.348 6.59,33.408 6.59,24.468 5.73,15.962 4.17,9.458 2.507,2.525 0.627,0.308 0,0 m 0,72.422 c -9.612,0 -12.177,-24.524 -12.177,-39.014 0,-14.491 2.565,-39.015 12.177,-39.015 9.613,0 12.177,24.524 12.177,39.015 0,14.49 -2.564,39.014 -12.177,39.014"
             style="fill:#6764cb;fill-opacity:1;fill-rule:nonzero;stroke:none"
             id="path26"
             inkscape:connector-curvature="0" /></g></g></g></g></svg>
