<?xml version="1.0" encoding="UTF-8" standalone="no"?>
<!-- Created with Inkscape (http://www.inkscape.org/) -->

<svg
   xmlns:dc="http://purl.org/dc/elements/1.1/"
   xmlns:cc="http://creativecommons.org/ns#"
   xmlns:rdf="http://www.w3.org/1999/02/22-rdf-syntax-ns#"
   xmlns:svg="http://www.w3.org/2000/svg"
   xmlns="http://www.w3.org/2000/svg"
   xmlns:sodipodi="http://sodipodi.sourceforge.net/DTD/sodipodi-0.dtd"
   xmlns:inkscape="http://www.inkscape.org/namespaces/inkscape"
   version="1.1"
   id="svg2"
   xml:space="preserve"
   width="107.41307"
   height="174.2"
   viewBox="0 0 107.41307 174.2"
   sodipodi:docname="7.svg"
   inkscape:version="0.92.4 (5da689c313, 2019-01-14)"><metadata
     id="metadata8"><rdf:RDF><cc:Work
         rdf:about=""><dc:format>image/svg+xml</dc:format><dc:type
           rdf:resource="http://purl.org/dc/dcmitype/StillImage" /><dc:title></dc:title></cc:Work></rdf:RDF></metadata><defs
     id="defs6"><clipPath
       clipPathUnits="userSpaceOnUse"
       id="clipPath18"><path
         d="M 0,130.65 H 80.56 V 0 H 0 Z"
         id="path16"
         inkscape:connector-curvature="0" /></clipPath></defs><sodipodi:namedview
     pagecolor="#ffffff"
     bordercolor="#666666"
     borderopacity="1"
     objecttolerance="10"
     gridtolerance="10"
     guidetolerance="10"
     inkscape:pageopacity="0"
     inkscape:pageshadow="2"
     inkscape:window-width="640"
     inkscape:window-height="498"
     id="namedview4"
     showgrid="false"
     inkscape:zoom="1.3547647"
     inkscape:cx="53.706535"
     inkscape:cy="87.099998"
     inkscape:window-x="0"
     inkscape:window-y="107"
     inkscape:window-maximized="0"
     inkscape:current-layer="g10" /><g
     id="g10"
     inkscape:groupmode="layer"
     inkscape:label="Inteligentne obiekty wektorowe16"
     transform="matrix(1.3333333,0,0,-1.3333333,0,174.2)"><g
       id="g12"><g
         id="g14"
         clip-path="url(#clipPath18)"><g
           id="g20"
           transform="translate(74.9725,24.2367)"><path
             d="M 0,0 -26.792,-11.293 V 88.558 L 0,99.852 Z M -47.806,56.775 -32.38,80.073 V -5.021 L -47.806,21.862 Z M -69.385,23.792 v 6.245 h 9.06 v 5.587 h -9.06 v 8.577 h 8.649 v 5.587 h -8.649 v 5.035 h 15.991 v -30.93 l -12.641,-0.08 h -2.805 v -0.018 z m 11.875,38.66 h 6.761 l -1.352,-2.042 h -8.795 z m 59.48,43.962 c -0.524,0 -1.044,-0.108 -1.549,-0.321 L -29.384,93.53 c -1.205,-0.508 -2.168,-1.582 -2.652,-2.819 L -47.049,68.039 h -12.014 l -13.041,-7.863 c -1.661,-0.557 -2.869,-2.111 -2.869,-3.957 V 22.378 c 0,-1.121 0.439,-2.174 1.235,-2.966 0.791,-0.785 1.836,-1.216 2.947,-1.216 h 0.026 l 1.925,0.012 v -42.445 h 5.587 v 42.463 h 5.032 v -42.463 h 5.588 v 42.548 l 0.421,0.002 20.202,-35.206 0.534,0.306 c 0.659,-0.776 1.617,-1.268 2.714,-1.268 0.523,0 1.043,0.107 1.548,0.32 L 2.592,-4.971 c 1.735,0.731 2.995,2.63 2.995,4.514 v 103.122 c 0,2.102 -1.589,3.749 -3.617,3.749"
             style="fill:#000000;fill-opacity:1;fill-rule:nonzero;stroke:none"
             id="path22"
             inkscape:connector-curvature="0" /></g></g></g></g></svg>