<?xml version="1.0" encoding="UTF-8" standalone="no"?>
<!-- Created with Inkscape (http://www.inkscape.org/) -->

<svg
   xmlns:dc="http://purl.org/dc/elements/1.1/"
   xmlns:cc="http://creativecommons.org/ns#"
   xmlns:rdf="http://www.w3.org/1999/02/22-rdf-syntax-ns#"
   xmlns:svg="http://www.w3.org/2000/svg"
   xmlns="http://www.w3.org/2000/svg"
   xmlns:sodipodi="http://sodipodi.sourceforge.net/DTD/sodipodi-0.dtd"
   xmlns:inkscape="http://www.inkscape.org/namespaces/inkscape"
   version="1.1"
   id="svg2"
   xml:space="preserve"
   width="167.32401"
   height="177.7"
   viewBox="0 0 167.32401 177.7"
   sodipodi:docname="8.svg"
   inkscape:version="0.92.4 (5da689c313, 2019-01-14)"><metadata
     id="metadata8"><rdf:RDF><cc:Work
         rdf:about=""><dc:format>image/svg+xml</dc:format><dc:type
           rdf:resource="http://purl.org/dc/dcmitype/StillImage" /><dc:title></dc:title></cc:Work></rdf:RDF></metadata><defs
     id="defs6"><clipPath
       clipPathUnits="userSpaceOnUse"
       id="clipPath18"><path
         d="M 0,133.275 H 125.493 V 0 H 0 Z"
         id="path16"
         inkscape:connector-curvature="0" /></clipPath></defs><sodipodi:namedview
     pagecolor="#ffffff"
     bordercolor="#666666"
     borderopacity="1"
     objecttolerance="10"
     gridtolerance="10"
     guidetolerance="10"
     inkscape:pageopacity="0"
     inkscape:pageshadow="2"
     inkscape:window-width="640"
     inkscape:window-height="480"
     id="namedview4"
     showgrid="false"
     inkscape:zoom="1.3280811"
     inkscape:cx="83.662003"
     inkscape:cy="88.849998"
     inkscape:window-x="0"
     inkscape:window-y="0"
     inkscape:window-maximized="0"
     inkscape:current-layer="g10" /><g
     id="g10"
     inkscape:groupmode="layer"
     inkscape:label="Inteligentne obiekty wektorowe17"
     transform="matrix(1.3333333,0,0,-1.3333333,0,177.7)"><g
       id="g12"><g
         id="g14"
         clip-path="url(#clipPath18)"><g
           id="g20"
           transform="translate(119.9047,5.587)"><path
             d="m 0,0 h -4.346 l -19.053,38.533 h 5.572 L -0.364,1.896 C -0.194,1.538 0,0.679 0,0.283 Z m -39.21,72.034 h 1.252 l 3.418,2.041 9.256,-19.574 h -5.257 z M -54.112,53.687 h -5.463 l -1.134,18.347 h 7.73 z m -29.243,0.814 h -5.256 l 9.3,19.672 3.582,-2.139 h 1.042 z M -109.972,0 h -4.345 v 0.283 c 0,0.396 0.194,1.255 0.364,1.613 l 17.463,36.637 h 5.572 z m 31.522,81.704 h 43.214 V 80.167 L -39.5,77.622 h -11.985 -10.716 -11.987 l -4.262,2.545 z m 6.837,8.227 h 3.282 22.975 3.283 v -2.64 h -29.54 z m 8.87,11.093 h 11.8 v -5.506 h -11.8 z m -7.943,5.587 v 15.49 h 2.548 v -11.463 h 22.782 v 11.463 h 3.283 v -15.49 h -3.283 -22.975 z m 8.136,15.49 h 11.606 v -5.875 H -62.55 Z M -54.188,0 h -5.311 l -1.292,38.533 h 7.895 z m -52.397,77.816 -3.792,2.572 13.618,20.091 3.791,-2.571 z M 4.68,4.3 -12.906,41.195 c -0.809,1.696 -2.758,2.926 -4.637,2.926 h -1.939 l -2.382,4.817 c 1.157,0.114 2.172,0.708 2.765,1.646 0.662,1.045 0.72,2.384 0.155,3.58 l -10.777,22.789 0.073,0.043 v 10.295 h -6.837 v 8.228 h -8.871 v 5.505 h 8.871 v 26.664 h -39.787 v -16.269 h -13.461 l -4.219,-6.094 -0.829,0.562 c -0.695,0.471 -1.507,0.72 -2.348,0.72 -1.393,0 -2.691,-0.686 -3.472,-1.837 l -15.185,-22.404 c -0.627,-0.926 -0.857,-2.041 -0.645,-3.142 0.212,-1.1 0.838,-2.052 1.763,-2.678 l 6.104,-4.138 c 0.696,-0.471 1.507,-0.72 2.348,-0.72 1.394,0 2.692,0.686 3.473,1.837 l 15.184,22.404 c 1.297,1.912 0.796,4.523 -1.117,5.819 l -0.65,0.441 2.52,3.642 h 10.534 v -4.807 h 7.941 v -5.505 h -8.87 v -8.228 h -6.837 V 77.246 l -10.913,-23.08 c -0.567,-1.196 -0.509,-2.535 0.153,-3.582 0.644,-1.016 1.782,-1.629 3.061,-1.664 l -2.373,-4.799 h -2.664 c -1.879,0 -3.83,-1.23 -4.637,-2.927 L -118.997,4.299 c -0.525,-1.105 -0.907,-2.793 -0.907,-4.016 v -1.597 c 0,-2.356 1.916,-4.273 4.272,-4.273 h 5.916 c 1.862,0 3.814,1.212 4.639,2.881 l 20.505,41.468 c 0.6,1.215 0.563,2.579 -0.102,3.65 -0.661,1.065 -1.858,1.701 -3.204,1.708 l 2.37,4.794 h 2.49 c 1.845,0 3.705,1.154 4.521,2.808 l 10.045,20.312 h 2.145 l 1.268,-20.512 c 0.123,-1.983 1.938,-3.423 4.317,-3.423 h 1.085 v -3.978 h -2.564 c -1.141,0 -2.248,-0.469 -3.038,-1.286 -0.791,-0.816 -1.222,-1.939 -1.184,-3.079 l 1.38,-41.164 c 0.078,-2.305 2.016,-4.179 4.321,-4.179 h 7.757 c 2.305,0 4.243,1.874 4.32,4.179 l 1.381,41.164 c 0.038,1.14 -0.392,2.263 -1.183,3.079 -0.79,0.817 -1.898,1.286 -3.038,1.286 h -2.565 v 3.978 h 1.085 c 2.379,0 4.194,1.44 4.317,3.423 l 1.268,20.512 h 1.936 l 10.045,-20.313 c 0.818,-1.653 2.676,-2.807 4.52,-2.807 h 2.793 l 2.37,-4.793 h -0.701 c -1.354,0 -2.561,-0.639 -3.225,-1.709 -0.665,-1.069 -0.704,-2.433 -0.104,-3.649 L -9.241,-2.705 c 0.825,-1.67 2.777,-2.882 4.639,-2.882 h 5.916 c 2.357,0 4.274,1.917 4.274,4.273 V 0.283 C 5.588,1.506 5.206,3.194 4.68,4.3"
             style="fill:#6764cb;fill-opacity:1;fill-rule:nonzero;stroke:none"
             id="path22"
             inkscape:connector-curvature="0" /></g></g></g></g></svg>
