<?xml version="1.0" encoding="UTF-8" standalone="no"?>
<!-- Created with Inkscape (http://www.inkscape.org/) -->

<svg
   xmlns:dc="http://purl.org/dc/elements/1.1/"
   xmlns:cc="http://creativecommons.org/ns#"
   xmlns:rdf="http://www.w3.org/1999/02/22-rdf-syntax-ns#"
   xmlns:svg="http://www.w3.org/2000/svg"
   xmlns="http://www.w3.org/2000/svg"
   xmlns:sodipodi="http://sodipodi.sourceforge.net/DTD/sodipodi-0.dtd"
   xmlns:inkscape="http://www.inkscape.org/namespaces/inkscape"
   version="1.1"
   id="svg2"
   xml:space="preserve"
   width="186.94667"
   height="115.5268"
   viewBox="0 0 186.94667 115.5268"
   sodipodi:docname="9.svg"
   inkscape:version="0.92.4 (5da689c313, 2019-01-14)"><metadata
     id="metadata8"><rdf:RDF><cc:Work
         rdf:about=""><dc:format>image/svg+xml</dc:format><dc:type
           rdf:resource="http://purl.org/dc/dcmitype/StillImage" /><dc:title></dc:title></cc:Work></rdf:RDF></metadata><defs
     id="defs6"><clipPath
       clipPathUnits="userSpaceOnUse"
       id="clipPath20"><path
         d="M 0,86.645 H 140.21 V 0 H 0 Z"
         id="path18"
         inkscape:connector-curvature="0" /></clipPath></defs><sodipodi:namedview
     pagecolor="#ffffff"
     bordercolor="#666666"
     borderopacity="1"
     objecttolerance="10"
     gridtolerance="10"
     guidetolerance="10"
     inkscape:pageopacity="0"
     inkscape:pageshadow="2"
     inkscape:window-width="640"
     inkscape:window-height="480"
     id="namedview4"
     showgrid="false"
     inkscape:zoom="2.042816"
     inkscape:cx="93.473335"
     inkscape:cy="57.763401"
     inkscape:window-x="0"
     inkscape:window-y="0"
     inkscape:window-maximized="0"
     inkscape:current-layer="g10" /><g
     id="g10"
     inkscape:groupmode="layer"
     inkscape:label="Inteligentne obiekty wektorowe18"
     transform="matrix(1.3333333,0,0,-1.3333333,0,115.5268)"><path
       d="m 17.601,19.27 h 5.587 v 28.086 h -5.587 z"
       style="fill:#000000;fill-opacity:1;fill-rule:nonzero;stroke:none"
       id="path12"
       inkscape:connector-curvature="0" /><g
       id="g14"><g
         id="g16"
         clip-path="url(#clipPath20)"><g
           id="g22"
           transform="translate(134.6224,57.3217)"><path
             d="m 0,0 -10.525,-7.72 9.215,-6.061 V -33.924 L -10.525,-39.986 0,-47.706 v -4.028 h -6.777 l -9.737,5.429 H -28.926 V -1.4 h 12.412 l 9.737,5.429 6.777,0 z m -40.472,-36.273 h 5.958 v -4.04 h -5.958 z m -5.588,-6.287 h -19.128 v 37.851 h 19.128 z m -27.303,36.166 h 2.589 v -33.92 h -2.589 z m -5.587,-39.633 -4.756,-5.707 h -3.138 V 2.881 l -13.331,6.57 -2.694,0.095 0.157,4.625 -14.293,0.486 -0.156,-4.613 -7.46,0.26 3.704,13.211 c 1.363,0.105 3.447,0.221 6.067,0.221 8.814,0 22.183,-1.246 35.832,-7.179 l 0.315,-0.137 10.419,-1.737 V 9.236 L -78.95,2.995 Z m -50.085,-0.061 h 2.122 v 44.034 h -2.122 v 6.92 l 27.466,-0.957 9.137,-4.504 v -51.139 h -36.603 z m 94.521,15.402 h -5.958 v 4.039 h 5.958 z m -5.958,13.666 h 5.958 v -4.04 h -5.958 z m 5.958,5.588 h -5.958 v 4.04 h 5.958 z M 5.588,9.616 H -8.23 l -9.737,-5.429 h -16.547 v -5.992 h -5.958 v 2.684 h -30.302 v -1.685 h -2.589 v 0.597 l 10.667,6.241 v 13.384 l -14.412,2.402 c -14.418,6.198 -28.467,7.505 -37.742,7.505 -5.243,0 -8.479,-0.427 -8.614,-0.446 l -1.821,-0.246 -4.263,-15.204 -5.074,-4.391 V -7.642 h 2.121 V -40.5 h -2.121 v -16.821 h 53.532 l 7.727,9.27 v 2.151 h 2.589 v -2.247 h 30.302 v 2.247 h 5.958 v -5.992 h 16.547 l 9.737,-5.429 H 5.588 v 12.447 l -6.325,4.638 5.014,3.299 v 26.168 l -5.014,3.299 6.325,4.638 z"
             style="fill:#000000;fill-opacity:1;fill-rule:nonzero;stroke:none"
             id="path24"
             inkscape:connector-curvature="0" /></g><path
           d="m 78.236,46.981 h -5.588 v -6.365 h 5.588 z"
           style="fill:#000000;fill-opacity:1;fill-rule:nonzero;stroke:none"
           id="path26"
           inkscape:connector-curvature="0" /><path
           d="m 78.236,36.652 h -5.588 v -6.365 h 5.588 z"
           style="fill:#000000;fill-opacity:1;fill-rule:nonzero;stroke:none"
           id="path28"
           inkscape:connector-curvature="0" /></g></g></g></svg>