<?xml version="1.0" encoding="UTF-8" standalone="no"?>
<!-- Created with Inkscape (http://www.inkscape.org/) -->

<svg
   xmlns:dc="http://purl.org/dc/elements/1.1/"
   xmlns:cc="http://creativecommons.org/ns#"
   xmlns:rdf="http://www.w3.org/1999/02/22-rdf-syntax-ns#"
   xmlns:svg="http://www.w3.org/2000/svg"
   xmlns="http://www.w3.org/2000/svg"
   xmlns:sodipodi="http://sodipodi.sourceforge.net/DTD/sodipodi-0.dtd"
   xmlns:inkscape="http://www.inkscape.org/namespaces/inkscape"
   version="1.1"
   id="svg2"
   xml:space="preserve"
   width="573.49731"
   height="356.84"
   viewBox="0 0 573.49731 356.84"
   sodipodi:docname="be.svg"
   inkscape:version="0.92.4 (5da689c313, 2019-01-14)"><metadata
     id="metadata8"><rdf:RDF><cc:Work
         rdf:about=""><dc:format>image/svg+xml</dc:format><dc:type
           rdf:resource="http://purl.org/dc/dcmitype/StillImage" /><dc:title></dc:title></cc:Work></rdf:RDF></metadata><defs
     id="defs6"><clipPath
       clipPathUnits="userSpaceOnUse"
       id="clipPath18"><path
         d="M 0,267.63 H 430.123 V 0 H 0 Z"
         id="path16"
         inkscape:connector-curvature="0" /></clipPath></defs><sodipodi:namedview
     pagecolor="#ffffff"
     bordercolor="#666666"
     borderopacity="1"
     objecttolerance="10"
     gridtolerance="10"
     guidetolerance="10"
     inkscape:pageopacity="0"
     inkscape:pageshadow="2"
     inkscape:window-width="640"
     inkscape:window-height="493"
     id="namedview4"
     showgrid="false"
     inkscape:zoom="0.66136084"
     inkscape:cx="286.74866"
     inkscape:cy="178.42"
     inkscape:window-x="0"
     inkscape:window-y="107"
     inkscape:window-maximized="0"
     inkscape:current-layer="g10" /><g
     id="g10"
     inkscape:groupmode="layer"
     inkscape:label="Inteligentne obiekty wektorowe1"
     transform="matrix(1.3333333,0,0,-1.3333333,0,356.84)"><g
       id="g12"><g
         id="g14"
         clip-path="url(#clipPath18)"><g
           id="g20"
           transform="translate(378.0625,123.1465)"><path
             d="m 0,0 c -0.938,13.322 -5.387,23.405 -13.396,30.296 -7.943,6.911 -17.866,10.379 -29.706,10.379 -12.885,0 -22.836,-3.708 -29.906,-10.995 -7.117,-7.274 -11.547,-17.161 -13.361,-29.681 l 86.369,0 z m 50.356,4.994 c 1.302,-8.756 1.891,-21.46 1.653,-38.064 H -87.569 c 0.769,-19.267 7.421,-32.74 20.035,-40.45 7.606,-4.834 16.83,-7.196 27.63,-7.196 11.387,0 20.67,2.879 27.814,8.797 3.894,3.138 7.327,7.565 10.296,13.152 h 51.16 c -1.34,-11.379 -7.5,-22.92 -18.569,-34.647 -17.151,-18.642 -41.205,-27.988 -72.098,-27.988 -25.519,0 -48.011,7.882 -67.532,23.591 -19.457,15.764 -29.229,41.331 -29.229,76.795 0,33.258 8.773,58.712 26.377,76.431 C -94.015,73.166 -71.211,82 -43.102,82 -26.44,82 -11.422,79.022 1.978,73.036 15.335,67.042 26.373,57.61 35.067,44.647 42.936,33.231 47.995,20.031 50.356,4.994 m -265.465,-43.539 c 0,13.902 -5.683,23.514 -17.023,28.67 -6.343,2.932 -15.29,4.43 -26.764,4.536 H -316.34 V -76.66 h 56.555 c 11.619,0 20.613,1.52 27.102,4.693 11.704,5.834 17.574,16.938 17.574,33.422 M -316.34,38.971 h 56.632 c 11.638,0 21.045,2.212 28.291,6.633 7.242,4.416 10.855,12.264 10.855,23.531 0,12.449 -4.785,20.713 -14.375,24.69 -8.245,2.762 -18.792,4.185 -31.591,4.185 h -49.812 z m 147.19,-42.135 c 6.954,-10.772 10.428,-23.85 10.428,-39.203 0,-15.878 -3.918,-30.122 -11.888,-42.704 -5.072,-8.326 -11.368,-15.36 -18.932,-21.022 -8.52,-6.548 -18.607,-11.038 -30.204,-13.436 -11.632,-2.404 -24.224,-3.617 -37.787,-3.617 h -120.529 v 267.629 h 129.25 c 32.579,-0.529 55.675,-9.968 69.314,-28.505 8.185,-11.37 12.24,-25.012 12.24,-40.869 0,-16.361 -4.104,-29.454 -12.368,-39.401 -4.598,-5.577 -11.389,-10.649 -20.378,-15.229 13.616,-4.984 23.948,-12.834 30.854,-23.643 M 10.369,106.61 H -97.403 v 26.77 H 10.379 v -26.77 z"
             style="fill:#000000;fill-opacity:1;fill-rule:nonzero;stroke:none"
             id="path22"
             inkscape:connector-curvature="0" /></g></g></g></g></svg>