<?xml version="1.0" encoding="UTF-8" standalone="no"?>
<!-- Created with Inkscape (http://www.inkscape.org/) -->

<svg
   xmlns:dc="http://purl.org/dc/elements/1.1/"
   xmlns:cc="http://creativecommons.org/ns#"
   xmlns:rdf="http://www.w3.org/1999/02/22-rdf-syntax-ns#"
   xmlns:svg="http://www.w3.org/2000/svg"
   xmlns="http://www.w3.org/2000/svg"
   xmlns:sodipodi="http://sodipodi.sourceforge.net/DTD/sodipodi-0.dtd"
   xmlns:inkscape="http://www.inkscape.org/namespaces/inkscape"
   version="1.1"
   id="svg2"
   xml:space="preserve"
   width="671.78802"
   height="671.78802"
   viewBox="0 0 671.78802 671.78802"
   sodipodi:docname="insta.svg"
   inkscape:version="0.92.4 (5da689c313, 2019-01-14)"><metadata
     id="metadata8"><rdf:RDF><cc:Work
         rdf:about=""><dc:format>image/svg+xml</dc:format><dc:type
           rdf:resource="http://purl.org/dc/dcmitype/StillImage" /><dc:title></dc:title></cc:Work></rdf:RDF></metadata><defs
     id="defs6"><clipPath
       clipPathUnits="userSpaceOnUse"
       id="clipPath18"><path
         d="M 0,503.841 H 503.841 V 0 H 0 Z"
         id="path16"
         inkscape:connector-curvature="0" /></clipPath></defs><sodipodi:namedview
     pagecolor="#ffffff"
     bordercolor="#666666"
     borderopacity="1"
     objecttolerance="10"
     gridtolerance="10"
     guidetolerance="10"
     inkscape:pageopacity="0"
     inkscape:pageshadow="2"
     inkscape:window-width="640"
     inkscape:window-height="496"
     id="namedview4"
     showgrid="false"
     inkscape:zoom="0.35130129"
     inkscape:cx="335.89401"
     inkscape:cy="335.89401"
     inkscape:window-x="0"
     inkscape:window-y="107"
     inkscape:window-maximized="0"
     inkscape:current-layer="g10" /><g
     id="g10"
     inkscape:groupmode="layer"
     inkscape:label="Inteligentne obiekty wektorowe"
     transform="matrix(1.3333333,0,0,-1.3333333,0,671.788)"><g
       id="g12"><g
         id="g14"
         clip-path="url(#clipPath18)"><g
           id="g20"
           transform="translate(251.9205,503.8409)"><path
             d="m 0,0 c -68.417,0 -76.997,-0.29 -103.866,-1.516 -26.815,-1.223 -45.127,-5.482 -61.152,-11.71 -16.565,-6.437 -30.615,-15.051 -44.62,-29.056 -14.006,-14.006 -22.619,-28.055 -29.057,-44.62 -6.228,-16.025 -10.486,-34.337 -11.71,-61.152 -1.226,-26.87 -1.515,-35.448 -1.515,-103.866 0,-68.418 0.289,-76.997 1.515,-103.867 1.224,-26.814 5.482,-45.127 11.71,-61.151 6.438,-16.565 15.051,-30.615 29.057,-44.62 14.005,-14.006 28.055,-22.619 44.62,-29.058 16.025,-6.227 34.337,-10.486 61.152,-11.71 26.869,-1.225 35.449,-1.515 103.866,-1.515 68.418,0 76.996,0.29 103.866,1.515 26.815,1.224 45.127,5.483 61.152,11.71 16.566,6.439 30.615,15.052 44.62,29.058 14.006,14.005 22.619,28.054 29.057,44.62 6.228,16.024 10.487,34.337 11.71,61.151 1.226,26.87 1.516,35.449 1.516,103.867 0,68.417 -0.29,76.996 -1.516,103.866 -1.223,26.815 -5.482,45.127 -11.71,61.152 -6.438,16.565 -15.051,30.614 -29.057,44.62 -14.005,14.005 -28.054,22.619 -44.62,29.056 -16.025,6.228 -34.337,10.487 -61.152,11.71 C 76.996,-0.29 68.418,0 0,0 m 0,-45.391 c 67.266,0 75.233,-0.256 101.797,-1.468 24.562,-1.121 37.901,-5.225 46.778,-8.675 11.759,-4.57 20.152,-10.029 28.967,-18.844 8.815,-8.816 14.274,-17.208 18.845,-28.967 3.449,-8.877 7.553,-22.216 8.674,-46.778 1.211,-26.564 1.468,-34.532 1.468,-101.797 0,-67.266 -0.257,-75.234 -1.468,-101.797 -1.121,-24.563 -5.225,-37.902 -8.674,-46.779 -4.571,-11.758 -10.03,-20.151 -18.845,-28.966 -8.815,-8.816 -17.208,-14.275 -28.967,-18.845 -8.877,-3.449 -22.216,-7.554 -46.778,-8.674 -26.56,-1.212 -34.526,-1.469 -101.797,-1.469 -67.271,0 -75.237,0.257 -101.797,1.469 -24.562,1.12 -37.902,5.225 -46.779,8.674 -11.758,4.57 -20.151,10.029 -28.966,18.845 -8.815,8.815 -14.275,17.208 -18.845,28.966 -3.449,8.877 -7.553,22.216 -8.674,46.778 -1.212,26.564 -1.468,34.532 -1.468,101.798 0,67.265 0.256,75.233 1.468,101.797 1.121,24.562 5.225,37.901 8.674,46.778 4.57,11.759 10.03,20.151 18.845,28.966 8.815,8.816 17.208,14.275 28.966,18.845 8.877,3.45 22.217,7.554 46.778,8.675 26.565,1.212 34.532,1.468 101.798,1.468"
             style="fill:#000000;fill-opacity:1;fill-rule:nonzero;stroke:none"
             id="path22"
             inkscape:connector-curvature="0" /></g><g
           id="g24"
           transform="translate(251.9205,167.9469)"><path
             d="m 0,0 c -46.377,0 -83.974,37.597 -83.974,83.974 0,46.377 37.597,83.973 83.974,83.973 46.377,0 83.974,-37.596 83.974,-83.973 C 83.974,37.597 46.377,0 0,0 m 0,213.338 c -71.446,0 -129.365,-57.918 -129.365,-129.364 0,-71.447 57.919,-129.365 129.365,-129.365 71.446,0 129.364,57.918 129.364,129.365 0,71.446 -57.918,129.364 -129.364,129.364"
             style="fill:#000000;fill-opacity:1;fill-rule:nonzero;stroke:none"
             id="path26"
             inkscape:connector-curvature="0" /></g><g
           id="g28"
           transform="translate(416.6266,386.3961)"><path
             d="m 0,0 c 0,-16.696 -13.534,-30.23 -30.23,-30.23 -16.696,0 -30.231,13.534 -30.231,30.23 0,16.696 13.535,30.23 30.231,30.23 C -13.534,30.23 0,16.696 0,0"
             style="fill:#000000;fill-opacity:1;fill-rule:nonzero;stroke:none"
             id="path30"
             inkscape:connector-curvature="0" /></g></g></g></g></svg>