<?xml version="1.0" encoding="UTF-8" standalone="no"?>
<!-- Created with Inkscape (http://www.inkscape.org/) -->

<svg
   xmlns:dc="http://purl.org/dc/elements/1.1/"
   xmlns:cc="http://creativecommons.org/ns#"
   xmlns:rdf="http://www.w3.org/1999/02/22-rdf-syntax-ns#"
   xmlns:svg="http://www.w3.org/2000/svg"
   xmlns="http://www.w3.org/2000/svg"
   xmlns:sodipodi="http://sodipodi.sourceforge.net/DTD/sodipodi-0.dtd"
   xmlns:inkscape="http://www.inkscape.org/namespaces/inkscape"
   version="1.1"
   id="svg2"
   xml:space="preserve"
   width="533.33331"
   height="533.33331"
   viewBox="0 0 533.33331 533.33331"
   sodipodi:docname="twi.svg"
   inkscape:version="0.92.4 (5da689c313, 2019-01-14)"><metadata
     id="metadata8"><rdf:RDF><cc:Work
         rdf:about=""><dc:format>image/svg+xml</dc:format><dc:type
           rdf:resource="http://purl.org/dc/dcmitype/StillImage" /><dc:title></dc:title></cc:Work></rdf:RDF></metadata><defs
     id="defs6"><clipPath
       clipPathUnits="userSpaceOnUse"
       id="clipPath18"><path
         d="M 0,400 H 400 V 0 H 0 Z"
         id="path16"
         inkscape:connector-curvature="0" /></clipPath></defs><sodipodi:namedview
     pagecolor="#ffffff"
     bordercolor="#666666"
     borderopacity="1"
     objecttolerance="10"
     gridtolerance="10"
     guidetolerance="10"
     inkscape:pageopacity="0"
     inkscape:pageshadow="2"
     inkscape:window-width="640"
     inkscape:window-height="488"
     id="namedview4"
     showgrid="false"
     inkscape:zoom="0.44250002"
     inkscape:cx="266.66666"
     inkscape:cy="266.66666"
     inkscape:window-x="0"
     inkscape:window-y="107"
     inkscape:window-maximized="0"
     inkscape:current-layer="g10" /><g
     id="g10"
     inkscape:groupmode="layer"
     inkscape:label="Inteligentne obiekty wektorowe11"
     transform="matrix(1.3333333,0,0,-1.3333333,0,533.33333)"><g
       id="g12"><g
         id="g14"
         clip-path="url(#clipPath18)"><g
           id="g20"
           transform="translate(300.4473,237.9189)"><path
             d="m 0,0 c 0.096,-2.067 0.139,-4.145 0.139,-6.233 0,-63.708 -48.497,-137.179 -137.181,-137.179 -27.232,0 -52.567,7.981 -73.905,21.656 3.773,-0.445 7.611,-0.668 11.501,-0.668 22.59,0 43.377,7.706 59.882,20.639 -21.106,0.392 -38.904,14.332 -45.041,33.487 2.936,-0.562 5.957,-0.87 9.063,-0.87 4.399,0 8.661,0.595 12.71,1.696 -22.06,4.421 -38.681,23.915 -38.681,47.268 0,0.211 0,0.413 0.011,0.615 6.498,-3.615 13.929,-5.788 21.836,-6.032 -12.942,8.639 -21.455,23.405 -21.455,40.133 0,8.83 2.385,17.109 6.53,24.232 23.777,-29.172 59.309,-48.359 99.379,-50.373 -0.827,3.53 -1.251,7.209 -1.251,10.993 0,26.617 21.593,48.21 48.221,48.21 13.865,0 26.395,-5.861 35.193,-15.232 10.983,2.162 21.296,6.18 30.614,11.702 C 13.961,32.787 6.318,23.342 -3.636,17.374 6.117,18.54 15.413,21.126 24.053,24.964 17.597,15.296 9.413,6.805 0,0 m -100.447,162.081 c -110.457,0 -200,-89.543 -200,-200 0,-110.457 89.543,-200 200,-200 110.457,0 200,89.543 200,200 0,110.457 -89.543,200 -200,200"
             style="fill:#000000;fill-opacity:1;fill-rule:nonzero;stroke:none"
             id="path22"
             inkscape:connector-curvature="0" /></g></g></g></g></svg>